<svg id="visual" viewBox="0 0 2500 400" width="2500" height="400" xmlns="http://www.w3.org/2000/svg" xmlns:xlink="http://www.w3.org/1999/xlink" version="1.1"><rect x="0" y="0" width="2500" height="400" fill="#1abc9c"></rect><path d="M0 192L37.8 173.2C75.7 154.3 151.3 116.7 227.2 109.2C303 101.7 379 124.3 454.8 145C530.7 165.7 606.3 184.3 682 191C757.7 197.7 833.3 192.3 909 177.8C984.7 163.3 1060.3 139.7 1136.2 130C1212 120.3 1288 124.7 1363.8 129.3C1439.7 134 1515.3 139 1591 147.8C1666.7 156.7 1742.3 169.3 1818 176.7C1893.7 184 1969.3 186 2045.2 174.7C2121 163.3 2197 138.7 2272.8 138C2348.7 137.3 2424.3 160.7 2462.2 172.3L2500 184L2500 0L2462.2 0C2424.3 0 2348.7 0 2272.8 0C2197 0 2121 0 2045.2 0C1969.3 0 1893.7 0 1818 0C1742.3 0 1666.7 0 1591 0C1515.3 0 1439.7 0 1363.8 0C1288 0 1212 0 1136.2 0C1060.3 0 984.7 0 909 0C833.3 0 757.7 0 682 0C606.3 0 530.7 0 454.8 0C379 0 303 0 227.2 0C151.3 0 75.7 0 37.8 0L0 0Z" fill="#127a65" stroke-linecap="round" stroke-linejoin="miter"></path></svg>